<svg xmlns="http://www.w3.org/2000/svg" width="192" height="192" viewBox="0 0 192 192">
  <rect width="192" height="192" rx="40" fill="#FAF7F2"/>
  <!-- rosebud motif -->
  <g transform="translate(96,104)">
    <path d="M0,40 C-4,10 -4,-20 0,-44 C4,-20 4,10 0,40 Z" fill="#9EB89A"/>
    <g fill="#C98BA0">
      <path d="M0,-44 C-22,-40 -30,-18 -16,-2 C-26,-14 -14,-34 0,-30 Z"/>
      <path d="M0,-44 C22,-40 30,-18 16,-2 C26,-14 14,-34 0,-30 Z"/>
      <path d="M0,-40 C-12,-36 -14,-18 -4,-8 C-10,-18 -6,-32 0,-28 Z" fill="#D99BAE"/>
      <path d="M0,-40 C12,-36 14,-18 4,-8 C10,-18 6,-32 0,-28 Z" fill="#D99BAE"/>
      <ellipse cx="0" cy="-26" rx="6" ry="14" fill="#C4A882"/>
    </g>
  </g>
</svg>
